<mxfile host="app.diagrams.net" modified="2024-07-16T12:36:39.788Z" agent="Mozilla/5.0 (Windows NT 10.0; Win64; x64) AppleWebKit/537.36 (KHTML, like Gecko) Chrome/126.0.0.0 Safari/537.36 Edg/126.0.0.0" etag="0EraUVcOqt6UAHbgrKG1" version="24.6.5" type="device">
  <diagram name="第 1 页" id="4YTSE4eZ45W9N5K_TEpb">
    <mxGraphModel dx="978" dy="526" grid="0" gridSize="10" guides="1" tooltips="1" connect="1" arrows="1" fold="1" page="1" pageScale="1" pageWidth="827" pageHeight="1169" background="#000000" math="0" shadow="0">
      <root>
        <mxCell id="0" />
        <mxCell id="1" parent="0" />
        <mxCell id="NGMO3P1ZQN5WQwCmuiat-1" value="Text" style="text;html=1;align=center;verticalAlign=middle;whiteSpace=wrap;rounded=0;" parent="1" vertex="1">
          <mxGeometry x="70" y="40" width="60" height="30" as="geometry" />
        </mxCell>
        <mxCell id="8ZOh0PptQuqyN855rmt1-1" value="&lt;font color=&quot;#ffffff&quot;&gt;P0(8)&lt;/font&gt;" style="text;html=1;align=center;verticalAlign=middle;whiteSpace=wrap;rounded=0;" vertex="1" parent="1">
          <mxGeometry x="70" y="80" width="60" height="30" as="geometry" />
        </mxCell>
        <mxCell id="8ZOh0PptQuqyN855rmt1-2" value="&lt;font color=&quot;#ffffff&quot;&gt;P1(9)&lt;/font&gt;" style="text;html=1;align=center;verticalAlign=middle;whiteSpace=wrap;rounded=0;" vertex="1" parent="1">
          <mxGeometry x="280" y="80" width="60" height="30" as="geometry" />
        </mxCell>
        <mxCell id="8ZOh0PptQuqyN855rmt1-3" value="&lt;font color=&quot;#ffffff&quot;&gt;P2(8)&lt;/font&gt;" style="text;html=1;align=center;verticalAlign=middle;whiteSpace=wrap;rounded=0;" vertex="1" parent="1">
          <mxGeometry x="470" y="80" width="60" height="30" as="geometry" />
        </mxCell>
        <mxCell id="8ZOh0PptQuqyN855rmt1-4" value="" style="endArrow=classic;html=1;rounded=0;strokeColor=#FFFFFF;" edge="1" parent="1">
          <mxGeometry width="50" height="50" relative="1" as="geometry">
            <mxPoint x="650" y="160" as="sourcePoint" />
            <mxPoint x="650" y="250" as="targetPoint" />
          </mxGeometry>
        </mxCell>
        <mxCell id="8ZOh0PptQuqyN855rmt1-6" value="&lt;font color=&quot;#ffffff&quot;&gt;time&lt;/font&gt;" style="text;html=1;align=center;verticalAlign=middle;whiteSpace=wrap;rounded=0;" vertex="1" parent="1">
          <mxGeometry x="650" y="180" width="60" height="30" as="geometry" />
        </mxCell>
        <mxCell id="8ZOh0PptQuqyN855rmt1-7" value="" style="endArrow=none;html=1;rounded=0;strokeColor=#FFFFFF;" edge="1" parent="1">
          <mxGeometry width="50" height="50" relative="1" as="geometry">
            <mxPoint x="100" y="450" as="sourcePoint" />
            <mxPoint x="100" y="110" as="targetPoint" />
          </mxGeometry>
        </mxCell>
        <mxCell id="8ZOh0PptQuqyN855rmt1-8" value="" style="endArrow=none;html=1;rounded=0;strokeColor=#FFFFFF;" edge="1" parent="1">
          <mxGeometry width="50" height="50" relative="1" as="geometry">
            <mxPoint x="309.58000000000004" y="450" as="sourcePoint" />
            <mxPoint x="309.58000000000004" y="110" as="targetPoint" />
          </mxGeometry>
        </mxCell>
        <mxCell id="8ZOh0PptQuqyN855rmt1-9" value="" style="endArrow=none;html=1;rounded=0;strokeColor=#FFFFFF;" edge="1" parent="1">
          <mxGeometry width="50" height="50" relative="1" as="geometry">
            <mxPoint x="499.58" y="450" as="sourcePoint" />
            <mxPoint x="499.58" y="110" as="targetPoint" />
          </mxGeometry>
        </mxCell>
        <mxCell id="8ZOh0PptQuqyN855rmt1-10" value="" style="curved=1;endArrow=classic;html=1;rounded=0;strokeColor=#FFFFFF;" edge="1" parent="1">
          <mxGeometry width="50" height="50" relative="1" as="geometry">
            <mxPoint x="510" y="100" as="sourcePoint" />
            <mxPoint x="520" y="120" as="targetPoint" />
            <Array as="points">
              <mxPoint x="560" y="100" />
            </Array>
          </mxGeometry>
        </mxCell>
        <mxCell id="8ZOh0PptQuqyN855rmt1-11" value="&lt;font color=&quot;#ffffff&quot;&gt;9&lt;/font&gt;" style="text;html=1;align=center;verticalAlign=middle;whiteSpace=wrap;rounded=0;" vertex="1" parent="1">
          <mxGeometry x="500" y="120" width="20" height="20" as="geometry" />
        </mxCell>
        <mxCell id="8ZOh0PptQuqyN855rmt1-12" value="" style="endArrow=classic;html=1;rounded=0;strokeColor=#007FFF;curved=0;strokeWidth=2;" edge="1" parent="1">
          <mxGeometry width="50" height="50" relative="1" as="geometry">
            <mxPoint x="500" y="130" as="sourcePoint" />
            <mxPoint x="100" y="160" as="targetPoint" />
          </mxGeometry>
        </mxCell>
        <mxCell id="8ZOh0PptQuqyN855rmt1-13" value="&lt;font color=&quot;#ffffff&quot;&gt;vote：1&lt;/font&gt;&lt;div&gt;&lt;font color=&quot;#ffffff&quot;&gt;votefor：2&lt;/font&gt;&lt;/div&gt;" style="text;html=1;align=center;verticalAlign=middle;whiteSpace=wrap;rounded=0;strokeWidth=2;strokeColor=#007FFF;" vertex="1" parent="1">
          <mxGeometry x="540" y="115" width="60" height="30" as="geometry" />
        </mxCell>
        <mxCell id="8ZOh0PptQuqyN855rmt1-14" value="" style="endArrow=classic;html=1;rounded=0;strokeColor=#007FFF;strokeWidth=2;" edge="1" parent="1">
          <mxGeometry width="50" height="50" relative="1" as="geometry">
            <mxPoint x="100" y="190" as="sourcePoint" />
            <mxPoint x="500" y="250" as="targetPoint" />
          </mxGeometry>
        </mxCell>
        <mxCell id="8ZOh0PptQuqyN855rmt1-18" value="" style="curved=1;endArrow=classic;html=1;rounded=0;strokeColor=#FFFFFF;" edge="1" parent="1">
          <mxGeometry width="50" height="50" relative="1" as="geometry">
            <mxPoint x="100" y="160" as="sourcePoint" />
            <mxPoint x="90" y="180" as="targetPoint" />
            <Array as="points">
              <mxPoint x="50" y="170" />
            </Array>
          </mxGeometry>
        </mxCell>
        <mxCell id="8ZOh0PptQuqyN855rmt1-19" value="&lt;font color=&quot;#ffffff&quot;&gt;9&lt;/font&gt;" style="text;html=1;align=center;verticalAlign=middle;whiteSpace=wrap;rounded=0;" vertex="1" parent="1">
          <mxGeometry x="80" y="180" width="20" height="20" as="geometry" />
        </mxCell>
        <mxCell id="8ZOh0PptQuqyN855rmt1-21" value="&lt;font color=&quot;#007fff&quot;&gt;Ask(9)&lt;/font&gt;" style="text;html=1;align=center;verticalAlign=middle;whiteSpace=wrap;rounded=0;" vertex="1" parent="1">
          <mxGeometry x="200" y="130" width="40" height="20" as="geometry" />
        </mxCell>
        <mxCell id="8ZOh0PptQuqyN855rmt1-23" value="&lt;font color=&quot;#007fff&quot;&gt;OK&lt;/font&gt;" style="text;html=1;align=center;verticalAlign=middle;whiteSpace=wrap;rounded=0;" vertex="1" parent="1">
          <mxGeometry x="180" y="210" width="40" height="20" as="geometry" />
        </mxCell>
        <mxCell id="8ZOh0PptQuqyN855rmt1-24" value="&lt;font color=&quot;#ffffff&quot;&gt;vote：2&amp;nbsp;&amp;nbsp;&lt;/font&gt;&lt;span style=&quot;color: rgb(255, 255, 255); background-color: initial;&quot;&gt;-&amp;gt; leader&lt;/span&gt;" style="text;html=1;align=center;verticalAlign=middle;whiteSpace=wrap;rounded=0;strokeWidth=2;strokeColor=#007FFF;" vertex="1" parent="1">
          <mxGeometry x="500" y="240" width="110" height="20" as="geometry" />
        </mxCell>
        <mxCell id="8ZOh0PptQuqyN855rmt1-25" value="" style="endArrow=classic;html=1;rounded=0;strokeColor=#007FFF;strokeWidth=2;" edge="1" parent="1">
          <mxGeometry width="50" height="50" relative="1" as="geometry">
            <mxPoint x="500" y="150" as="sourcePoint" />
            <mxPoint x="310" y="160" as="targetPoint" />
          </mxGeometry>
        </mxCell>
        <mxCell id="8ZOh0PptQuqyN855rmt1-26" value="&lt;font color=&quot;#007fff&quot;&gt;Ask(9)&lt;/font&gt;" style="text;html=1;align=center;verticalAlign=middle;whiteSpace=wrap;rounded=0;" vertex="1" parent="1">
          <mxGeometry x="400" y="150" width="40" height="20" as="geometry" />
        </mxCell>
        <mxCell id="8ZOh0PptQuqyN855rmt1-27" value="" style="endArrow=classic;html=1;rounded=0;strokeColor=#007FFF;strokeWidth=2;" edge="1" parent="1">
          <mxGeometry width="50" height="50" relative="1" as="geometry">
            <mxPoint x="310" y="170" as="sourcePoint" />
            <mxPoint x="500" y="200" as="targetPoint" />
          </mxGeometry>
        </mxCell>
        <mxCell id="8ZOh0PptQuqyN855rmt1-28" value="&lt;font color=&quot;#007fff&quot;&gt;Refuse(10)&lt;/font&gt;" style="text;html=1;align=center;verticalAlign=middle;whiteSpace=wrap;rounded=0;" vertex="1" parent="1">
          <mxGeometry x="414" y="170" width="66" height="20" as="geometry" />
        </mxCell>
        <mxCell id="8ZOh0PptQuqyN855rmt1-29" value="" style="curved=1;endArrow=classic;html=1;rounded=0;strokeColor=#FFFFFF;" edge="1" parent="1">
          <mxGeometry width="50" height="50" relative="1" as="geometry">
            <mxPoint x="510" y="200" as="sourcePoint" />
            <mxPoint x="520" y="220" as="targetPoint" />
            <Array as="points">
              <mxPoint x="560" y="200" />
            </Array>
          </mxGeometry>
        </mxCell>
        <mxCell id="8ZOh0PptQuqyN855rmt1-30" value="&lt;font color=&quot;#ffffff&quot;&gt;10&lt;/font&gt;" style="text;html=1;align=center;verticalAlign=middle;whiteSpace=wrap;rounded=0;" vertex="1" parent="1">
          <mxGeometry x="500" y="220" width="20" height="20" as="geometry" />
        </mxCell>
        <mxCell id="8ZOh0PptQuqyN855rmt1-31" value="&lt;font color=&quot;#ffffff&quot;&gt;vote：1&lt;/font&gt;&lt;div&gt;&lt;font color=&quot;#ffffff&quot;&gt;votefor：-1&lt;/font&gt;&lt;/div&gt;" style="text;html=1;align=center;verticalAlign=middle;whiteSpace=wrap;rounded=0;strokeWidth=2;strokeColor=#007FFF;" vertex="1" parent="1">
          <mxGeometry x="540" y="205" width="60" height="30" as="geometry" />
        </mxCell>
        <mxCell id="8ZOh0PptQuqyN855rmt1-33" value="&lt;div&gt;&lt;font color=&quot;#ffffff&quot;&gt;votefor：2&lt;/font&gt;&lt;/div&gt;" style="text;html=1;align=center;verticalAlign=middle;whiteSpace=wrap;rounded=0;strokeWidth=2;strokeColor=#007FFF;" vertex="1" parent="1">
          <mxGeometry x="20" y="145" width="60" height="15" as="geometry" />
        </mxCell>
        <mxCell id="8ZOh0PptQuqyN855rmt1-34" value="" style="curved=1;endArrow=classic;html=1;rounded=0;strokeColor=#FFFFFF;" edge="1" parent="1">
          <mxGeometry width="50" height="50" relative="1" as="geometry">
            <mxPoint x="290" y="100" as="sourcePoint" />
            <mxPoint x="280" y="120" as="targetPoint" />
            <Array as="points">
              <mxPoint x="240" y="110" />
            </Array>
          </mxGeometry>
        </mxCell>
        <mxCell id="8ZOh0PptQuqyN855rmt1-35" value="&lt;font color=&quot;#ffffff&quot;&gt;10&lt;/font&gt;" style="text;html=1;align=center;verticalAlign=middle;whiteSpace=wrap;rounded=0;" vertex="1" parent="1">
          <mxGeometry x="290" y="115" width="20" height="20" as="geometry" />
        </mxCell>
        <mxCell id="8ZOh0PptQuqyN855rmt1-37" value="&lt;font color=&quot;#ffffff&quot;&gt;vote：1&lt;/font&gt;&lt;div&gt;&lt;font color=&quot;#ffffff&quot;&gt;votefor：1&lt;/font&gt;&lt;/div&gt;" style="text;html=1;align=center;verticalAlign=middle;whiteSpace=wrap;rounded=0;strokeWidth=2;strokeColor=#FF0000;" vertex="1" parent="1">
          <mxGeometry x="200" y="90" width="60" height="30" as="geometry" />
        </mxCell>
        <mxCell id="8ZOh0PptQuqyN855rmt1-38" value="" style="endArrow=classic;html=1;rounded=0;strokeColor=#FF0000;strokeWidth=2;" edge="1" parent="1">
          <mxGeometry width="50" height="50" relative="1" as="geometry">
            <mxPoint x="310" y="150" as="sourcePoint" />
            <mxPoint x="100" y="210" as="targetPoint" />
          </mxGeometry>
        </mxCell>
        <mxCell id="8ZOh0PptQuqyN855rmt1-39" value="&lt;font color=&quot;#ff0000&quot;&gt;Ask(10)&lt;/font&gt;" style="text;html=1;align=center;verticalAlign=middle;whiteSpace=wrap;rounded=0;" vertex="1" parent="1">
          <mxGeometry x="180" y="165" width="40" height="20" as="geometry" />
        </mxCell>
        <mxCell id="8ZOh0PptQuqyN855rmt1-41" value="" style="curved=1;endArrow=classic;html=1;rounded=0;strokeColor=#FFFFFF;" edge="1" parent="1">
          <mxGeometry width="50" height="50" relative="1" as="geometry">
            <mxPoint x="100" y="215" as="sourcePoint" />
            <mxPoint x="90" y="235" as="targetPoint" />
            <Array as="points">
              <mxPoint x="50" y="225" />
            </Array>
          </mxGeometry>
        </mxCell>
        <mxCell id="8ZOh0PptQuqyN855rmt1-42" value="&lt;font color=&quot;#ffffff&quot;&gt;10&lt;/font&gt;" style="text;html=1;align=center;verticalAlign=middle;whiteSpace=wrap;rounded=0;" vertex="1" parent="1">
          <mxGeometry x="80" y="240" width="20" height="20" as="geometry" />
        </mxCell>
        <mxCell id="8ZOh0PptQuqyN855rmt1-43" value="&lt;div&gt;&lt;font color=&quot;#ffffff&quot;&gt;votefor：1&lt;/font&gt;&lt;/div&gt;" style="text;html=1;align=center;verticalAlign=middle;whiteSpace=wrap;rounded=0;strokeWidth=2;strokeColor=#FF0000;" vertex="1" parent="1">
          <mxGeometry x="20" y="195" width="60" height="15" as="geometry" />
        </mxCell>
        <mxCell id="8ZOh0PptQuqyN855rmt1-44" value="" style="endArrow=classic;html=1;rounded=0;strokeColor=#FF0000;strokeWidth=2;" edge="1" parent="1">
          <mxGeometry width="50" height="50" relative="1" as="geometry">
            <mxPoint x="310" y="190" as="sourcePoint" />
            <mxPoint x="500" y="220" as="targetPoint" />
          </mxGeometry>
        </mxCell>
        <mxCell id="8ZOh0PptQuqyN855rmt1-45" value="&lt;font color=&quot;#ff0000&quot;&gt;Ask(10)&lt;/font&gt;" style="text;html=1;align=center;verticalAlign=middle;whiteSpace=wrap;rounded=0;" vertex="1" parent="1">
          <mxGeometry x="380" y="200" width="40" height="20" as="geometry" />
        </mxCell>
        <mxCell id="8ZOh0PptQuqyN855rmt1-46" value="" style="endArrow=classic;html=1;rounded=0;strokeColor=#FF0000;strokeWidth=2;" edge="1" parent="1">
          <mxGeometry width="50" height="50" relative="1" as="geometry">
            <mxPoint x="100" y="240" as="sourcePoint" />
            <mxPoint x="310" y="260" as="targetPoint" />
          </mxGeometry>
        </mxCell>
        <mxCell id="8ZOh0PptQuqyN855rmt1-47" value="&lt;font color=&quot;#ffffff&quot;&gt;vote：2&amp;nbsp;&amp;nbsp;&lt;/font&gt;&lt;span style=&quot;background-color: initial; color: rgb(255, 255, 255);&quot;&gt;-&amp;gt; leader&lt;/span&gt;" style="text;html=1;align=center;verticalAlign=middle;whiteSpace=wrap;rounded=0;strokeWidth=2;strokeColor=#FF0000;" vertex="1" parent="1">
          <mxGeometry x="314" y="250" width="100" height="20" as="geometry" />
        </mxCell>
        <mxCell id="8ZOh0PptQuqyN855rmt1-48" value="" style="endArrow=classic;html=1;rounded=0;strokeColor=#FF0000;strokeWidth=2;" edge="1" parent="1">
          <mxGeometry width="50" height="50" relative="1" as="geometry">
            <mxPoint x="500" y="280" as="sourcePoint" />
            <mxPoint x="310" y="290" as="targetPoint" />
          </mxGeometry>
        </mxCell>
        <mxCell id="8ZOh0PptQuqyN855rmt1-49" value="&lt;div&gt;&lt;font color=&quot;#ffffff&quot;&gt;votefor：1&lt;/font&gt;&lt;/div&gt;" style="text;html=1;align=center;verticalAlign=middle;whiteSpace=wrap;rounded=0;strokeWidth=2;strokeColor=#FF0000;" vertex="1" parent="1">
          <mxGeometry x="510" y="270" width="60" height="20" as="geometry" />
        </mxCell>
        <mxCell id="8ZOh0PptQuqyN855rmt1-50" value="&lt;font color=&quot;#ffffff&quot;&gt;leader &amp;lt;- vote：3&lt;/font&gt;" style="text;html=1;align=center;verticalAlign=middle;whiteSpace=wrap;rounded=0;strokeWidth=2;strokeColor=#FF0000;" vertex="1" parent="1">
          <mxGeometry x="200" y="280" width="100" height="20" as="geometry" />
        </mxCell>
        <mxCell id="8ZOh0PptQuqyN855rmt1-51" value="" style="endArrow=none;dashed=1;html=1;dashPattern=1 3;strokeWidth=3;rounded=0;strokeColor=#FFFFFF;entryX=0;entryY=1;entryDx=0;entryDy=0;exitX=0.067;exitY=0;exitDx=0;exitDy=0;exitPerimeter=0;" edge="1" parent="1" source="8ZOh0PptQuqyN855rmt1-54" target="8ZOh0PptQuqyN855rmt1-47">
          <mxGeometry width="50" height="50" relative="1" as="geometry">
            <mxPoint x="370" y="390" as="sourcePoint" />
            <mxPoint x="300" y="300" as="targetPoint" />
          </mxGeometry>
        </mxCell>
        <mxCell id="8ZOh0PptQuqyN855rmt1-52" value="" style="endArrow=none;dashed=1;html=1;dashPattern=1 3;strokeWidth=3;rounded=0;strokeColor=#FFFFFF;entryX=0;entryY=1;entryDx=0;entryDy=0;exitX=1;exitY=0;exitDx=0;exitDy=0;" edge="1" parent="1" source="8ZOh0PptQuqyN855rmt1-54" target="8ZOh0PptQuqyN855rmt1-24">
          <mxGeometry width="50" height="50" relative="1" as="geometry">
            <mxPoint x="414" y="390" as="sourcePoint" />
            <mxPoint x="334" y="300" as="targetPoint" />
          </mxGeometry>
        </mxCell>
        <mxCell id="8ZOh0PptQuqyN855rmt1-54" value="&lt;font color=&quot;#ffffff&quot;&gt;Term=10&lt;/font&gt;&lt;div&gt;&lt;font color=&quot;#ffffff&quot;&gt;两个领导人&lt;/font&gt;&lt;/div&gt;" style="text;html=1;align=center;verticalAlign=middle;whiteSpace=wrap;rounded=0;strokeWidth=2;strokeColor=none;" vertex="1" parent="1">
          <mxGeometry x="365" y="390" width="65" height="30" as="geometry" />
        </mxCell>
      </root>
    </mxGraphModel>
  </diagram>
</mxfile>
